<svg class="diagram-root" style="background: #f5f6f6" xmlns="http://www.w3.org/2000/svg" xmlns:xlink="http://www.w3.org/1999/xlink"><style>.diagram-root { font-family: "Helvetica Neue", sans-serif; font-size: 12px; } .t { overflow: visible; } .t-bg { y: 40; fill: #fff;   } .th { fill: #005aa0;   } .tht { fill: #fff; font-size: 14px;  } .tf { fill: #323c46; overflow: visible; } .tf.pk { fill: #005aa0; font-weight: bold; } .tf.fk { font-weight: bold; } .ty { fill: #adb1b5; font-weight: normal; text-anchor: end; } .r { fill: transparent; stroke: #c3c3c3; stroke-width: 1; } .l { stroke: 1; } .i { fill: #c2c7ce; stroke: #c2c7ce; } .i.ix { fill: #afb3b6; stroke: #000; } .fa { fill: transparent; overflow: visible; } .fa .bg.hover { fill: #f7f7f7; } .c { cy: 12; r: 4; stroke: #d2d2dc; fill: #d2d2dc; } .hr { fill: transparent; stroke: #323c46; stroke-opacity: 0.035; stroke-width: 13; } .dc { stroke: #fa5a3c; fill: #fa5a3c; } .x { stroke: white; stroke-width: 1; } .hl .th { fill: #1b9bff; } .hl .tht {  } .fhl .bg { fill: #e7f4ff; } .fhls .bg {  } .r.hl { stroke: #1b9bff; } .dim { opacity: 0.25; }</style><g class="drawing-wrapper" transform="translate(-11.2222222222222, 0.4444444444444393) scale(1,1)"><g class="rs"><path d="M 653.33 86.56 m -1, 0 a 1,1 0 1,0 2,0 a 1,1 0 1,0 -2,0 M 653.33 86.56 m -0.5, 0 a 0.5,0.5 0 1,0 1,0 a 0.5,0.5 0 1,0 -1,0  M653.33 86.56 L653.33 86.56 641.33 86.56 M 653.33 92.56 m -1, 0 a 1,1 0 1,0 2,0 a 1,1 0 1,0 -2,0 M 653.33 92.56 m -0.5, 0 a 0.5,0.5 0 1,0 1,0 a 0.5,0.5 0 1,0 -1,0  M653.33 92.56 L653.33 92.56 646.33 86.56 653.33 80.56 M 653.33 80.56 m -1, 0 a 1,1 0 1,0 2,0 a 1,1 0 1,0 -2,0 M 653.33 80.56 m -0.5, 0 a 0.5,0.5 0 1,0 1,0 a 0.5,0.5 0 1,0 -1,0  M641.33 86.56 Q 621.47 86.56, 601.61 182.56 T 561.89 278.56 M 549.89 278.56 m -1, 0 a 1,1 0 1,0 2,0 a 1,1 0 1,0 -2,0 M 549.89 278.56 m -0.5, 0 a 0.5,0.5 0 1,0 1,0 a 0.5,0.5 0 1,0 -1,0  M549.89 278.56 L549.89 278.56 561.89 278.56 M555.89 284.56 L555.89 284.56 555.89 272.56" id="h4232534043" class="r"></path><path d="M 673.33 364.89 m -1, 0 a 1,1 0 1,0 2,0 a 1,1 0 1,0 -2,0 M 673.33 364.89 m -0.5, 0 a 0.5,0.5 0 1,0 1,0 a 0.5,0.5 0 1,0 -1,0  M673.33 364.89 L673.33 364.89 661.33 364.89 M 673.33 370.89 m -1, 0 a 1,1 0 1,0 2,0 a 1,1 0 1,0 -2,0 M 673.33 370.89 m -0.5, 0 a 0.5,0.5 0 1,0 1,0 a 0.5,0.5 0 1,0 -1,0  M673.33 370.89 L673.33 370.89 666.33 364.89 673.33 358.89 M 673.33 358.89 m -1, 0 a 1,1 0 1,0 2,0 a 1,1 0 1,0 -2,0 M 673.33 358.89 m -0.5, 0 a 0.5,0.5 0 1,0 1,0 a 0.5,0.5 0 1,0 -1,0  M661.33 364.89 Q 636.47 364.89, 611.61 346.73 T 561.89 328.56 M 549.89 328.56 m -1, 0 a 1,1 0 1,0 2,0 a 1,1 0 1,0 -2,0 M 549.89 328.56 m -0.5, 0 a 0.5,0.5 0 1,0 1,0 a 0.5,0.5 0 1,0 -1,0  M549.89 328.56 L549.89 328.56 561.89 328.56 M555.89 334.56 L555.89 334.56 555.89 322.56" id="h1165146666" class="r"></path><path d="M 284.44 326.44 m -1, 0 a 1,1 0 1,0 2,0 a 1,1 0 1,0 -2,0 M 284.44 326.44 m -0.5, 0 a 0.5,0.5 0 1,0 1,0 a 0.5,0.5 0 1,0 -1,0  M284.44 326.44 L284.44 326.44 296.44 326.44 M 284.44 332.44 m -1, 0 a 1,1 0 1,0 2,0 a 1,1 0 1,0 -2,0 M 284.44 332.44 m -0.5, 0 a 0.5,0.5 0 1,0 1,0 a 0.5,0.5 0 1,0 -1,0  M284.44 332.44 L284.44 332.44 291.44 326.44 284.44 320.44 M 284.44 320.44 m -1, 0 a 1,1 0 1,0 2,0 a 1,1 0 1,0 -2,0 M 284.44 320.44 m -0.5, 0 a 0.5,0.5 0 1,0 1,0 a 0.5,0.5 0 1,0 -1,0  M296.44 326.44 Q 318.31 326.44, 340.17 277.5 T 383.89 228.56 M 395.89 228.56 m -1, 0 a 1,1 0 1,0 2,0 a 1,1 0 1,0 -2,0 M 395.89 228.56 m -0.5, 0 a 0.5,0.5 0 1,0 1,0 a 0.5,0.5 0 1,0 -1,0  M395.89 228.56 L395.89 228.56 383.89 228.56 M389.89 234.56 L389.89 234.56 389.89 222.56" id="h2558411332" class="r"></path><path d="M 391.23 491.88 m -1, 0 a 1,1 0 1,0 2,0 a 1,1 0 1,0 -2,0 M 391.23 491.88 m -0.5, 0 a 0.5,0.5 0 1,0 1,0 a 0.5,0.5 0 1,0 -1,0  M391.23 491.88 L391.23 491.88 379.23 491.88 M 391.23 497.88 m -1, 0 a 1,1 0 1,0 2,0 a 1,1 0 1,0 -2,0 M 391.23 497.88 m -0.5, 0 a 0.5,0.5 0 1,0 1,0 a 0.5,0.5 0 1,0 -1,0  M391.23 497.88 L391.23 497.88 384.23 491.88 391.23 485.88 M 391.23 485.88 m -1, 0 a 1,1 0 1,0 2,0 a 1,1 0 1,0 -2,0 M 391.23 485.88 m -0.5, 0 a 0.5,0.5 0 1,0 1,0 a 0.5,0.5 0 1,0 -1,0  M379.23 491.88 Q 335.48 491.88, 291.73 558.39 T 204.22 624.89 M 192.22 624.89 m -1, 0 a 1,1 0 1,0 2,0 a 1,1 0 1,0 -2,0 M 192.22 624.89 m -0.5, 0 a 0.5,0.5 0 1,0 1,0 a 0.5,0.5 0 1,0 -1,0  M192.22 624.89 L192.22 624.89 204.22 624.89 M198.22 630.89 L198.22 630.89 198.22 618.89" id="h961324396" class="r"></path><path d="M 33.22 599.89 m -1, 0 a 1,1 0 1,0 2,0 a 1,1 0 1,0 -2,0 M 33.22 599.89 m -0.5, 0 a 0.5,0.5 0 1,0 1,0 a 0.5,0.5 0 1,0 -1,0  M33.22 599.89 L33.22 599.89 21.22 599.89 M 33.22 605.89 m -1, 0 a 1,1 0 1,0 2,0 a 1,1 0 1,0 -2,0 M 33.22 605.89 m -0.5, 0 a 0.5,0.5 0 1,0 1,0 a 0.5,0.5 0 1,0 -1,0  M33.22 605.89 L33.22 605.89 26.22 599.89 33.22 593.89 M 33.22 593.89 m -1, 0 a 1,1 0 1,0 2,0 a 1,1 0 1,0 -2,0 M 33.22 593.89 m -0.5, 0 a 0.5,0.5 0 1,0 1,0 a 0.5,0.5 0 1,0 -1,0  M21.22 599.89 C -28.78 599.89, -71.512 351.44, 92.44 351.44 M 104.44 351.44 m -1, 0 a 1,1 0 1,0 2,0 a 1,1 0 1,0 -2,0 M 104.44 351.44 m -0.5, 0 a 0.5,0.5 0 1,0 1,0 a 0.5,0.5 0 1,0 -1,0  M104.44 351.44 L104.44 351.44 92.44 351.44 M98.44 357.44 L98.44 357.44 98.44 345.44" id="h3690099745" class="r"></path><path d="M 417.67 738.56 m -1, 0 a 1,1 0 1,0 2,0 a 1,1 0 1,0 -2,0 M 417.67 738.56 m -0.5, 0 a 0.5,0.5 0 1,0 1,0 a 0.5,0.5 0 1,0 -1,0  M417.67 738.56 L417.67 738.56 405.67 738.56 M 417.67 744.56 m -1, 0 a 1,1 0 1,0 2,0 a 1,1 0 1,0 -2,0 M 417.67 744.56 m -0.5, 0 a 0.5,0.5 0 1,0 1,0 a 0.5,0.5 0 1,0 -1,0  M417.67 744.56 L417.67 744.56 410.67 738.56 417.67 732.56 M 417.67 732.56 m -1, 0 a 1,1 0 1,0 2,0 a 1,1 0 1,0 -2,0 M 417.67 732.56 m -0.5, 0 a 0.5,0.5 0 1,0 1,0 a 0.5,0.5 0 1,0 -1,0  M405.67 738.56 Q 355.31 738.56, 304.95 681.72 T 204.22 624.89 M 192.22 624.89 m -1, 0 a 1,1 0 1,0 2,0 a 1,1 0 1,0 -2,0 M 192.22 624.89 m -0.5, 0 a 0.5,0.5 0 1,0 1,0 a 0.5,0.5 0 1,0 -1,0  M192.22 624.89 L192.22 624.89 204.22 624.89 M198.22 630.89 L198.22 630.89 198.22 618.89" id="h93918781" class="r"></path><path d="M 1007.11 280.11 m -1, 0 a 1,1 0 1,0 2,0 a 1,1 0 1,0 -2,0 M 1007.11 280.11 m -0.5, 0 a 0.5,0.5 0 1,0 1,0 a 0.5,0.5 0 1,0 -1,0  M1007.11 280.11 L1007.11 280.11 995.11 280.11 M 1007.11 286.11 m -1, 0 a 1,1 0 1,0 2,0 a 1,1 0 1,0 -2,0 M 1007.11 286.11 m -0.5, 0 a 0.5,0.5 0 1,0 1,0 a 0.5,0.5 0 1,0 -1,0  M1007.11 286.11 L1007.11 286.11 1000.11 280.11 1007.11 274.11 M 1007.11 274.11 m -1, 0 a 1,1 0 1,0 2,0 a 1,1 0 1,0 -2,0 M 1007.11 274.11 m -0.5, 0 a 0.5,0.5 0 1,0 1,0 a 0.5,0.5 0 1,0 -1,0  M995.11 280.11 Q 886.81 280.11, 778.5 241.84 T 561.89 203.56 M 549.89 203.56 m -1, 0 a 1,1 0 1,0 2,0 a 1,1 0 1,0 -2,0 M 549.89 203.56 m -0.5, 0 a 0.5,0.5 0 1,0 1,0 a 0.5,0.5 0 1,0 -1,0  M549.89 203.56 L549.89 203.56 561.89 203.56 M555.89 209.56 L555.89 209.56 555.89 197.56" id="h314487589" class="r"></path><path d="M 1155.11 330.11 m -1, 0 a 1,1 0 1,0 2,0 a 1,1 0 1,0 -2,0 M 1155.11 330.11 m -0.5, 0 a 0.5,0.5 0 1,0 1,0 a 0.5,0.5 0 1,0 -1,0  M1155.11 330.11 L1155.11 330.11 1167.11 330.11 M 1155.11 336.11 m -1, 0 a 1,1 0 1,0 2,0 a 1,1 0 1,0 -2,0 M 1155.11 336.11 m -0.5, 0 a 0.5,0.5 0 1,0 1,0 a 0.5,0.5 0 1,0 -1,0  M1155.11 336.11 L1155.11 336.11 1162.11 330.11 1155.11 324.11 M 1155.11 324.11 m -1, 0 a 1,1 0 1,0 2,0 a 1,1 0 1,0 -2,0 M 1155.11 324.11 m -0.5, 0 a 0.5,0.5 0 1,0 1,0 a 0.5,0.5 0 1,0 -1,0  M1167.11 330.11 Q 1189.17 330.11, 1211.22 389.5 T 1255.34 448.88 M 1267.34 448.88 m -1, 0 a 1,1 0 1,0 2,0 a 1,1 0 1,0 -2,0 M 1267.34 448.88 m -0.5, 0 a 0.5,0.5 0 1,0 1,0 a 0.5,0.5 0 1,0 -1,0  M1267.34 448.88 L1267.34 448.88 1255.34 448.88 M1261.34 454.88 L1261.34 454.88 1261.34 442.88" id="h2149909887" class="r"></path><path d="M 1323.33 232.56 m -1, 0 a 1,1 0 1,0 2,0 a 1,1 0 1,0 -2,0 M 1323.33 232.56 m -0.5, 0 a 0.5,0.5 0 1,0 1,0 a 0.5,0.5 0 1,0 -1,0  M1323.33 232.56 L1323.33 232.56 1311.33 232.56 M 1323.33 238.56 m -1, 0 a 1,1 0 1,0 2,0 a 1,1 0 1,0 -2,0 M 1323.33 238.56 m -0.5, 0 a 0.5,0.5 0 1,0 1,0 a 0.5,0.5 0 1,0 -1,0  M1323.33 238.56 L1323.33 238.56 1316.33 232.56 1323.33 226.56 M 1323.33 226.56 m -1, 0 a 1,1 0 1,0 2,0 a 1,1 0 1,0 -2,0 M 1323.33 226.56 m -0.5, 0 a 0.5,0.5 0 1,0 1,0 a 0.5,0.5 0 1,0 -1,0  M1311.33 232.56 Q 1275.28 232.56, 1239.22 268.84 T 1167.11 305.11 M 1155.11 305.11 m -1, 0 a 1,1 0 1,0 2,0 a 1,1 0 1,0 -2,0 M 1155.11 305.11 m -0.5, 0 a 0.5,0.5 0 1,0 1,0 a 0.5,0.5 0 1,0 -1,0  M1155.11 305.11 L1155.11 305.11 1167.11 305.11 M1161.11 311.11 L1161.11 311.11 1161.11 299.11" id="h1446526203" class="r"></path></g><g class="hrs"></g><g class="ts"><svg width="154" height="250" x="395.89" y="96.56" id="h63013430" class="t"><rect height="40" width="154" class="th"></rect><text x="13" y="25" class="tht">orders</text><rect height="210" width="154" class="t-bg" y="40"></rect><text x="13" y="61" class="tf pk">row_id<tspan x="141" class="ty">int</tspan></text><path d="M7,14A2,2 0 0,1 5,12A2,2 0 0,1 7,10A2,2 0 0,1 9,12A2,2 0 0,1 7,14M12.65,10C11.83,7.67 9.61,6 7, 6A6, 6 0 0, 0 1, 12A6, 6 0 0, 0 7, 18C9.61, 18 11.83, 16.33 12.65, 14H17V18H21V14H23V10H12.65Z" class="i pk" transform="translate(108, 48) scale(0.65)"></path><text x="13" y="86" class="tf">order_id<tspan x="141" class="ty">varchar(10)</tspan></text><text x="13" y="111" class="tf fk">created_at<tspan x="141" class="ty">datetime</tspan></text><text x="13" y="136" class="tf fk">item_id<tspan x="141" class="ty">varchar(10)</tspan></text><text x="13" y="161" class="tf">quantity<tspan x="141" class="ty">int</tspan></text><text x="13" y="186" class="tf fk">cust_id<tspan x="141" class="ty">int</tspan></text><text x="13" y="211" class="tf">delivery<tspan x="141" class="ty">boolean</tspan></text><text x="13" y="236" class="tf fk">add_id<tspan x="141" class="ty">int</tspan></text></svg><svg width="190" height="125" x="653.33" y="29.56" id="h2841425641" class="t"><rect height="40" width="190" class="th"></rect><text x="13" y="25" class="tht">customers</text><rect height="85" width="190" class="t-bg" y="40"></rect><text x="13" y="61" class="tf pk">cust_id<tspan x="177" class="ty">int</tspan></text><path d="M7,14A2,2 0 0,1 5,12A2,2 0 0,1 7,10A2,2 0 0,1 9,12A2,2 0 0,1 7,14M12.65,10C11.83,7.67 9.61,6 7, 6A6, 6 0 0, 0 1, 12A6, 6 0 0, 0 7, 18C9.61, 18 11.83, 16.33 12.65, 14H17V18H21V14H23V10H12.65Z" class="i pk" transform="translate(144, 48) scale(0.65)"></path><text x="13" y="86" class="tf">cust_firstname<tspan x="177" class="ty">varchar(50)</tspan></text><text x="13" y="111" class="tf">cust_lastname<tspan x="177" class="ty">varchar(50)</tspan></text></svg><svg width="230" height="175" x="673.33" y="307.89" id="h3861953418" class="t"><rect height="40" width="230" class="th"></rect><text x="13" y="25" class="tht">address</text><rect height="135" width="230" class="t-bg" y="40"></rect><text x="13" y="61" class="tf pk">add_id<tspan x="217" class="ty">int</tspan></text><path d="M7,14A2,2 0 0,1 5,12A2,2 0 0,1 7,10A2,2 0 0,1 9,12A2,2 0 0,1 7,14M12.65,10C11.83,7.67 9.61,6 7, 6A6, 6 0 0, 0 1, 12A6, 6 0 0, 0 7, 18C9.61, 18 11.83, 16.33 12.65, 14H17V18H21V14H23V10H12.65Z" class="i pk" transform="translate(184, 48) scale(0.65)"></path><text x="13" y="86" class="tf">delivery_address1<tspan x="217" class="ty">varchar(200)</tspan></text><text x="13" y="111" class="tf">delivery_address2<tspan x="217" class="ty">varchar(200)?</tspan></text><text x="13" y="136" class="tf">delivery_city<tspan x="217" class="ty">varchar(50)</tspan></text><text x="13" y="161" class="tf">delivery_zipcode<tspan x="217" class="ty">varchar(20)</tspan></text></svg><svg width="180" height="200" x="104.44" y="269.44" id="h1168452966" class="t"><rect height="40" width="180" class="th"></rect><text x="13" y="25" class="tht">item</text><rect height="160" width="180" class="t-bg" y="40"></rect><text x="13" y="61" class="tf pk">item_id<tspan x="167" class="ty">varchar(10)</tspan></text><path d="M7,14A2,2 0 0,1 5,12A2,2 0 0,1 7,10A2,2 0 0,1 9,12A2,2 0 0,1 7,14M12.65,10C11.83,7.67 9.61,6 7, 6A6, 6 0 0, 0 1, 12A6, 6 0 0, 0 7, 18C9.61, 18 11.83, 16.33 12.65, 14H17V18H21V14H23V10H12.65Z" class="i pk" transform="translate(85, 48) scale(0.65)"></path><text x="13" y="86" class="tf fk">sku<tspan x="167" class="ty">varchar(20)</tspan></text><text x="13" y="111" class="tf">item_name<tspan x="167" class="ty">varchar(100)</tspan></text><text x="13" y="136" class="tf">item_cat<tspan x="167" class="ty">varchar(100)</tspan></text><text x="13" y="161" class="tf">item_size<tspan x="167" class="ty">varchar(10)</tspan></text><text x="13" y="186" class="tf">item_price<tspan x="167" class="ty">decimal(10,2)</tspan></text></svg><svg width="171" height="175" x="391.23" y="434.88" id="h1537057077" class="t"><rect height="40" width="171" class="th"></rect><text x="13" y="25" class="tht">ingredient</text><rect height="135" width="171" class="t-bg" y="40"></rect><text x="13" y="61" class="tf pk">ing_id<tspan x="158" class="ty">varchar(10)</tspan></text><path d="M7,14A2,2 0 0,1 5,12A2,2 0 0,1 7,10A2,2 0 0,1 9,12A2,2 0 0,1 7,14M12.65,10C11.83,7.67 9.61,6 7, 6A6, 6 0 0, 0 1, 12A6, 6 0 0, 0 7, 18C9.61, 18 11.83, 16.33 12.65, 14H17V18H21V14H23V10H12.65Z" class="i pk" transform="translate(76, 48) scale(0.65)"></path><text x="13" y="86" class="tf">ing_name<tspan x="158" class="ty">varchar(200)</tspan></text><text x="13" y="111" class="tf">ing_weight<tspan x="158" class="ty">int</tspan></text><text x="13" y="136" class="tf">ing_meas<tspan x="158" class="ty">varchar(20)</tspan></text><text x="13" y="161" class="tf">ing_price<tspan x="158" class="ty">decimal(5,2)</tspan></text></svg><svg width="159" height="150" x="33.22" y="517.89" id="h236439381" class="t"><rect height="40" width="159" class="th"></rect><text x="13" y="25" class="tht">recipe</text><rect height="110" width="159" class="t-bg" y="40"></rect><text x="13" y="61" class="tf pk">row_id<tspan x="146" class="ty">int</tspan></text><path d="M7,14A2,2 0 0,1 5,12A2,2 0 0,1 7,10A2,2 0 0,1 9,12A2,2 0 0,1 7,14M12.65,10C11.83,7.67 9.61,6 7, 6A6, 6 0 0, 0 1, 12A6, 6 0 0, 0 7, 18C9.61, 18 11.83, 16.33 12.65, 14H17V18H21V14H23V10H12.65Z" class="i pk" transform="translate(113, 48) scale(0.65)"></path><text x="13" y="86" class="tf fk">recipe_id<tspan x="146" class="ty">varchar(20)</tspan></text><text x="13" y="111" class="tf fk">ing_id<tspan x="146" class="ty">varchar(10)</tspan></text><text x="13" y="136" class="tf">quantity<tspan x="146" class="ty">int</tspan></text></svg><svg width="149" height="125" x="417.67" y="656.56" id="h2363698624" class="t"><rect height="40" width="149" class="th"></rect><text x="13" y="25" class="tht">inventory</text><rect height="85" width="149" class="t-bg" y="40"></rect><text x="13" y="61" class="tf pk">inv_id<tspan x="136" class="ty">int</tspan></text><path d="M7,14A2,2 0 0,1 5,12A2,2 0 0,1 7,10A2,2 0 0,1 9,12A2,2 0 0,1 7,14M12.65,10C11.83,7.67 9.61,6 7, 6A6, 6 0 0, 0 1, 12A6, 6 0 0, 0 7, 18C9.61, 18 11.83, 16.33 12.65, 14H17V18H21V14H23V10H12.65Z" class="i pk" transform="translate(103, 48) scale(0.65)"></path><text x="13" y="86" class="tf fk">item_id<tspan x="136" class="ty">varchar(10)</tspan></text><text x="13" y="111" class="tf">quantity<tspan x="136" class="ty">int</tspan></text></svg><svg width="176" height="175" x="1267.34" y="391.88" id="h3541999088" class="t"><rect height="40" width="176" class="th"></rect><text x="13" y="25" class="tht">staff</text><rect height="135" width="176" class="t-bg" y="40"></rect><text x="13" y="61" class="tf pk">staff_id<tspan x="163" class="ty">varchar(20)</tspan></text><path d="M7,14A2,2 0 0,1 5,12A2,2 0 0,1 7,10A2,2 0 0,1 9,12A2,2 0 0,1 7,14M12.65,10C11.83,7.67 9.61,6 7, 6A6, 6 0 0, 0 1, 12A6, 6 0 0, 0 7, 18C9.61, 18 11.83, 16.33 12.65, 14H17V18H21V14H23V10H12.65Z" class="i pk" transform="translate(81, 48) scale(0.65)"></path><text x="13" y="86" class="tf">first_name<tspan x="163" class="ty">varchar(50)</tspan></text><text x="13" y="111" class="tf">last_name<tspan x="163" class="ty">varchar(50)</tspan></text><text x="13" y="136" class="tf">position<tspan x="163" class="ty">varchar(100)</tspan></text><text x="13" y="161" class="tf">hourly_rate<tspan x="163" class="ty">decimal(5,2)</tspan></text></svg><svg width="148" height="175" x="1007.11" y="173.11" id="h2836412505" class="t"><rect height="40" width="148" class="th"></rect><text x="13" y="25" class="tht">rota</text><rect height="135" width="148" class="t-bg" y="40"></rect><text x="13" y="61" class="tf pk">row_id<tspan x="135" class="ty">int</tspan></text><path d="M7,14A2,2 0 0,1 5,12A2,2 0 0,1 7,10A2,2 0 0,1 9,12A2,2 0 0,1 7,14M12.65,10C11.83,7.67 9.61,6 7, 6A6, 6 0 0, 0 1, 12A6, 6 0 0, 0 7, 18C9.61, 18 11.83, 16.33 12.65, 14H17V18H21V14H23V10H12.65Z" class="i pk" transform="translate(102, 48) scale(0.65)"></path><text x="13" y="86" class="tf">rota_id<tspan x="135" class="ty">varchar(20)</tspan></text><text x="13" y="111" class="tf fk">date<tspan x="135" class="ty">datetime</tspan></text><text x="13" y="136" class="tf fk">shift_id<tspan x="135" class="ty">varchar(20)</tspan></text><text x="13" y="161" class="tf fk">staff_id<tspan x="135" class="ty">varchar(20)</tspan></text></svg><svg width="180" height="150" x="1323.33" y="175.56" id="h3902158989" class="t"><rect height="40" width="180" class="th"></rect><text x="13" y="25" class="tht">shift</text><rect height="110" width="180" class="t-bg" y="40"></rect><text x="13" y="61" class="tf pk">shift_id<tspan x="167" class="ty">varchar(20)</tspan></text><path d="M7,14A2,2 0 0,1 5,12A2,2 0 0,1 7,10A2,2 0 0,1 9,12A2,2 0 0,1 7,14M12.65,10C11.83,7.67 9.61,6 7, 6A6, 6 0 0, 0 1, 12A6, 6 0 0, 0 7, 18C9.61, 18 11.83, 16.33 12.65, 14H17V18H21V14H23V10H12.65Z" class="i pk" transform="translate(85, 48) scale(0.65)"></path><text x="13" y="86" class="tf">day_of_week<tspan x="167" class="ty">varchar(10)</tspan></text><text x="13" y="111" class="tf">start_time<tspan x="167" class="ty">time</tspan></text><text x="13" y="136" class="tf">end_time<tspan x="167" class="ty">time</tspan></text></svg></g></g><text class="qdbd-link" x="10" y="20">www.quickdatabasediagrams.com</text></svg>